<?xml version="1.0" encoding="utf-8"?>
<!-- Generator: Adobe Illustrator 21.0.2, SVG Export Plug-In . SVG Version: 6.00 Build 0)  -->
<svg version="1.1" id="图层_1" xmlns="http://www.w3.org/2000/svg" xmlns:xlink="http://www.w3.org/1999/xlink" x="0px" y="0px"
	 viewBox="0 0 16 16" style="enable-background:new 0 0 16 16;" xml:space="preserve">
<style type="text/css">
	.st0{fill:#4D5761;}
</style>
<g>
	<path class="st0" d="M8.1,7.5l4.1-4.3c0.2-0.2,0.5-0.2,0.7,0s0.2,0.5,0,0.7L9.2,7.6l3.6,3.7c0.2,0.2,0.2,0.5,0,0.7
		c-0.2,0.2-0.5,0.2-0.7,0L8.1,7.8V7.5z"/>
	<path class="st0" d="M8,7.6c0-0.1,0-0.1,0.1-0.2v0.3C8,7.7,8,7.7,8,7.6z"/>
	<path class="st0" d="M7,3.2C7.2,3,7.5,3,7.6,3.2s0.2,0.5,0,0.7L4.1,7.6l3.6,3.7c0.2,0.2,0.2,0.5,0,0.7c-0.2,0.2-0.5,0.2-0.7,0
		L2.9,7.8v0c0,0,0-0.3,0-0.3L7,3.2z"/>
	<path class="st0" d="M2.9,7.5L2.9,7.5c0,0,0,0.3,0,0.3c-0.1,0-0.1-0.1-0.1-0.2C2.8,7.6,2.8,7.5,2.9,7.5z"/>
</g>
</svg>
