<?xml version="1.0" encoding="utf-8"?>
<!-- Generator: Adobe Illustrator 21.0.2, SVG Export Plug-In . SVG Version: 6.00 Build 0)  -->
<svg version="1.1" id="图层_1" xmlns="http://www.w3.org/2000/svg" xmlns:xlink="http://www.w3.org/1999/xlink" x="0px" y="0px"
	 viewBox="0 0 16 16" style="enable-background:new 0 0 16 16;" xml:space="preserve">
<style type="text/css">
	.st0{fill:#4D5761;}
</style>
<g>
	<path class="st0" d="M7.7,7.5L3.6,3.2C3.4,3,3.1,3,2.9,3.2s-0.2,0.5,0,0.7l3.6,3.7l-3.6,3.7c-0.2,0.2-0.2,0.5,0,0.7
		c0.2,0.2,0.5,0.2,0.7,0l4.1-4.3V7.5z"/>
	<path class="st0" d="M7.8,7.6c0-0.1,0-0.1-0.1-0.2v0.3C7.7,7.7,7.8,7.7,7.8,7.6z"/>
	<path class="st0" d="M8.8,3.2C8.6,3,8.3,3,8.1,3.2s-0.2,0.5,0,0.7l3.6,3.7l-3.6,3.7c-0.2,0.2-0.2,0.5,0,0.7c0.2,0.2,0.5,0.2,0.7,0
		l4.1-4.3v0c0,0,0-0.3,0-0.3L8.8,3.2z"/>
	<path class="st0" d="M12.9,7.5L12.9,7.5c0,0,0,0.3,0,0.3c0.1,0,0.1-0.1,0.1-0.2C13,7.6,12.9,7.5,12.9,7.5z"/>
</g>
</svg>
